# xmcd
#
# Track frame offsets:
#	150
#	15159
#	31871
#	43526
#	57294
#	73638
#	83148
#	103731
#	129221
#	147224
#	166062
#
# Disc length: 2377 seconds
#
# Revision: 1
# Processed by: cddbd v1.5.2PL0 Copyright (c) Steve Scherf et al.
# Submitted via: audiograbber 1.83.01
#
DISCID=7f09470b
DTITLE=Tommy Emmanuel with Jim Nichols - Happy Hour
DYEAR=2006
DGENRE=Swing
TTITLE0=Happy Hour
TTITLE1=Nine Pound Hammer
TTITLE2=Avalon
TTITLE3=Who's Sorry Now
TTITLE4=Trambone
TTITLE5=Mom's Rag
TTITLE6=Lover Come Back to Me
TTITLE7=Birth of the Blues
TTITLE8=I'll See You In My Dreams
TTITLE9=Stomping at the Savoy
TTITLE10=Sanitarium Shuffle
EXTD=
EXTT0=
EXTT1=
EXTT2=
EXTT3=
EXTT4=
EXTT5=
EXTT6=
EXTT7=
EXTT8=
EXTT9=
EXTT10=
PLAYORDER=
